<svg xmlns="http://www.w3.org/2000/svg" version="1.1" xmlns:xlink="http://www.w3.org/1999/xlink" xmlns:svgjs="http://svgjs.dev/svgjs" width="1500" height="1078" viewBox="0 0 1500 1078"><g transform="matrix(1,0,0,1,-0.15574671639490134,-1.738709677419365)"><svg viewBox="0 0 345 248" data-background-color="#ffffff" preserveAspectRatio="xMidYMid meet" height="1078" width="1500" xmlns="http://www.w3.org/2000/svg" xmlns:xlink="http://www.w3.org/1999/xlink"><g id="tight-bounds" transform="matrix(1,0,0,1,0.035821744770828445,0.4000000000000057)"><svg viewBox="0 0 344.92835651045834 247.2" height="247.2" width="344.92835651045834"><g><svg viewBox="0 0 395.52 283.45754170267963" height="247.2" width="344.92835651045834"><g transform="matrix(1,0,0,1,0,172.146744830512)"><svg viewBox="0 0 395.52 111.31079687216763" height="111.31079687216763" width="395.52"><g id="textblocktransform"><svg viewBox="0 0 395.52 111.31079687216763" height="111.31079687216763" width="395.52" id="textblock"><g><svg viewBox="0 0 395.52 77.58189546237793" height="77.58189546237793" width="395.52"><g transform="matrix(1,0,0,1,0,0)"><svg width="395.52" viewBox="4.45 -33.5 174.08 34.15" height="77.58189546237793" data-palette-color="#000000"><path d="M4.45-18.3L8.5-18.3 8.5-0.4Q8.3-0.35 7.75-0.18 7.2 0 6.65 0L6.65 0Q5.65 0 5.05-0.63 4.45-1.25 4.45-2.2L4.45-2.2 4.45-18.3ZM8.5-12.4L4.45-12.45 4.45-28.2Q4.45-29.2 5.05-29.8 5.65-30.4 6.65-30.4L6.65-30.4Q7.2-30.4 7.75-30.25 8.3-30.1 8.5-30L8.5-30 8.5-12.4ZM6.65-13.9L6.65-17.3 21.7-17.3Q21.85-17.1 22-16.65 22.15-16.2 22.15-15.7L22.15-15.7Q22.15-14.9 21.75-14.4 21.35-13.9 20.6-13.9L20.6-13.9 6.65-13.9ZM6.65 0L6.65-3.4 23.5-3.4Q23.65-3.2 23.8-2.78 23.95-2.35 23.95-1.8L23.95-1.8Q23.95-1 23.55-0.5 23.15 0 22.4 0L22.4 0 6.65 0ZM6.65-26.95L6.65-30.4 23.25-30.4Q23.4-30.2 23.55-29.75 23.7-29.3 23.7-28.8L23.7-28.8Q23.7-28 23.3-27.48 22.9-26.95 22.15-26.95L22.15-26.95 6.65-26.95ZM46.05-3.95L46.05-20.75 50.05-20.8 50.05-3.8Q50.05-2.85 49.62-2.27 49.2-1.7 48.3-1.15L48.3-1.15Q47.3-0.5 45.45 0.08 43.6 0.65 41.2 0.65L41.2 0.65Q37.6 0.65 34.85-0.6 32.1-1.85 30.55-4.53 29-7.2 29-11.45L29-11.45Q29-15.8 30.52-18.5 32.05-21.2 34.65-22.48 37.25-23.75 40.35-23.75L40.35-23.75Q42.3-23.75 44.05-23.2 45.8-22.65 46.8-21.85L46.8-21.85 46.8-18.15Q45.85-19.1 44.32-19.78 42.8-20.45 40.75-20.45L40.75-20.45Q38.7-20.45 36.95-19.58 35.2-18.7 34.15-16.7 33.1-14.7 33.1-11.35L33.1-11.35Q33.1-6.8 35.3-4.73 37.5-2.65 41.15-2.65L41.15-2.65Q42.9-2.65 44.02-3.03 45.15-3.4 46.05-3.95L46.05-3.95ZM50.05-19.8L46.05-19.75 46.05-32.4Q46.3-32.5 46.82-32.63 47.35-32.75 47.9-32.75L47.9-32.75Q49-32.75 49.52-32.33 50.05-31.9 50.05-30.95L50.05-30.95 50.05-19.8ZM57.65-8.45L57.65-13 61.65-13 61.65-8.65Q61.65-5.45 63.35-4.05 65.05-2.65 68.05-2.65L68.05-2.65Q70.05-2.65 71.45-3.08 72.84-3.5 73.65-3.95L73.65-3.95 73.65-13 77.65-13 77.65-4.1Q77.65-3.05 77.37-2.43 77.09-1.8 76.05-1.2L76.05-1.2Q74.95-0.55 72.9 0.05 70.84 0.65 68 0.65L68 0.65Q64.7 0.65 62.37-0.33 60.05-1.3 58.85-3.33 57.65-5.35 57.65-8.45L57.65-8.45ZM77.65-10.4L73.65-10.4 73.65-23Q73.9-23.1 74.42-23.23 74.95-23.35 75.5-23.35L75.5-23.35Q76.59-23.35 77.12-22.93 77.65-22.5 77.65-21.5L77.65-21.5 77.65-10.4ZM61.65-10.4L57.65-10.4 57.65-23Q57.9-23.1 58.42-23.23 58.95-23.35 59.55-23.35L59.55-23.35Q60.6-23.35 61.12-22.93 61.65-22.5 61.65-21.5L61.65-21.5 61.65-10.4ZM88.49-18.55L88.49-21.8 99.09-21.8Q99.24-21.6 99.39-21.18 99.54-20.75 99.54-20.2L99.54-20.2Q99.54-19.4 99.14-18.98 98.74-18.55 97.99-18.55L97.99-18.55 88.49-18.55ZM89.19-24.95L89.19-19.1 85.24-19.1 85.24-25.15Q85.24-28.1 86.32-29.93 87.39-31.75 89.42-32.63 91.44-33.5 94.24-33.5L94.24-33.5Q97.09-33.5 98.72-32.75 100.34-32 100.34-30.9L100.34-30.9Q100.34-30.35 100.12-29.9 99.89-29.45 99.49-29.05L99.49-29.05Q98.59-29.55 97.24-29.88 95.89-30.2 94.64-30.2L94.64-30.2Q91.59-30.2 90.39-28.95 89.19-27.7 89.19-24.95L89.19-24.95ZM85.24-21.3L89.24-21.3 89.24-0.1Q88.99 0 88.49 0.13 87.99 0.25 87.39 0.25L87.39 0.25Q86.34 0.25 85.79-0.18 85.24-0.6 85.24-1.55L85.24-1.55 85.24-21.3ZM126.54-11.55L126.54-11.55Q126.54-7.85 125.14-5.1 123.74-2.35 121.19-0.85 118.64 0.65 115.19 0.65L115.19 0.65Q111.74 0.65 109.17-0.85 106.59-2.35 105.19-5.1 103.79-7.85 103.79-11.55L103.79-11.55Q103.79-15.3 105.22-18.03 106.64-20.75 109.22-22.25 111.79-23.75 115.19-23.75L115.19-23.75Q118.59-23.75 121.14-22.25 123.69-20.75 125.12-18.03 126.54-15.3 126.54-11.55ZM115.19-20.45L115.19-20.45Q111.84-20.45 109.87-18.07 107.89-15.7 107.89-11.55L107.89-11.55Q107.89-7.35 109.82-5 111.74-2.65 115.19-2.65L115.19-2.65Q118.59-2.65 120.52-5.03 122.44-7.4 122.44-11.55L122.44-11.55Q122.44-15.7 120.52-18.07 118.59-20.45 115.19-20.45ZM133.14-13.2L137.14-12.6 137.14-0.1Q136.89 0 136.39 0.13 135.89 0.25 135.29 0.25L135.29 0.25Q134.24 0.25 133.69-0.18 133.14-0.6 133.14-1.55L133.14-1.55 133.14-13.2ZM137.14-10.7L133.14-11.25 133.14-32.4Q133.39-32.5 133.91-32.63 134.44-32.75 134.99-32.75L134.99-32.75Q136.09-32.75 136.61-32.33 137.14-31.9 137.14-30.95L137.14-30.95 137.14-10.7ZM144.69-30.4L144.69-30.4Q144.69-31.45 145.44-32.18 146.19-32.9 147.29-32.9L147.29-32.9Q148.44-32.9 149.14-32.18 149.84-31.45 149.84-30.4L149.84-30.4Q149.84-29.35 149.14-28.63 148.44-27.9 147.29-27.9L147.29-27.9Q146.19-27.9 145.44-28.63 144.69-29.35 144.69-30.4ZM145.29-13.2L149.29-13.2 149.29-0.1Q149.04 0 148.54 0.13 148.04 0.25 147.44 0.25L147.44 0.25Q146.39 0.25 145.84-0.18 145.29-0.6 145.29-1.55L145.29-1.55 145.29-13.2ZM149.29-11.25L145.29-11.25 145.29-23Q145.54-23.1 146.06-23.23 146.59-23.35 147.19-23.35L147.19-23.35Q148.24-23.35 148.76-22.93 149.29-22.5 149.29-21.5L149.29-21.5 149.29-11.25ZM178.53-11.55L178.53-11.55Q178.53-7.85 177.13-5.1 175.73-2.35 173.18-0.85 170.63 0.65 167.18 0.65L167.18 0.65Q163.73 0.65 161.16-0.85 158.58-2.35 157.18-5.1 155.78-7.85 155.78-11.55L155.78-11.55Q155.78-15.3 157.21-18.03 158.63-20.75 161.21-22.25 163.78-23.75 167.18-23.75L167.18-23.75Q170.58-23.75 173.13-22.25 175.68-20.75 177.11-18.03 178.53-15.3 178.53-11.55ZM167.18-20.45L167.18-20.45Q163.83-20.45 161.86-18.07 159.88-15.7 159.88-11.55L159.88-11.55Q159.88-7.35 161.81-5 163.73-2.65 167.18-2.65L167.18-2.65Q170.58-2.65 172.51-5.03 174.43-7.4 174.43-11.55L174.43-11.55Q174.43-15.7 172.51-18.07 170.58-20.45 167.18-20.45Z" opacity="1" transform="matrix(1,0,0,1,0,0)" fill="#000000" class="wordmark-text-0" data-fill-palette-color="primary" id="text-0"></path></svg></g></svg></g><g transform="matrix(1,0,0,1,0,95.89711901555427)"><svg viewBox="0 0 395.52 15.41367785661336" height="15.41367785661336" width="395.52"><g transform="matrix(1,0,0,1,0,0)"><svg width="395.52" viewBox="3.0999999999999996 -36.25 944.3 36.8" height="15.41367785661336" data-palette-color="#000000"><path d="M19.5 0.55L19.5 0.55Q14.4 0.55 10.73-1.8 7.05-4.15 5.08-8.28 3.1-12.4 3.1-17.75L3.1-17.75Q3.1-21.75 4.4-25.1 5.7-28.45 8-30.95 10.3-33.45 13.33-34.83 16.35-36.2 19.8-36.2L19.8-36.2Q22.85-36.2 24.83-35.52 26.8-34.85 27.8-34.35L27.8-34.35Q28.45-34.05 29-33.83 29.55-33.6 29.75-33.6L29.75-33.6Q30.3-33.6 30.65-34.02 31-34.45 31.1-35.5L31.1-35.5 32.35-35.5 32.25-29.65 32.35-23.8 31.1-23.8Q30.35-29 27.5-31.85 24.65-34.7 19.95-34.7L19.95-34.7Q16.65-34.7 14.4-33.38 12.15-32.05 10.8-29.73 9.45-27.4 8.83-24.33 8.2-21.25 8.2-17.75L8.2-17.75Q8.2-12.5 9.33-8.75 10.45-5 13.03-2.98 15.6-0.95 19.95-0.95L19.95-0.95Q23.2-0.95 25.6-2.45 28-3.95 29.48-6.45 30.95-8.95 31.25-11.95L31.25-11.95 32.45-11.95 32.35-5.85 32.5 0 31.3 0 31.15-0.55Q30.95-1.2 30.68-1.78 30.4-2.35 29.75-2.35L29.75-2.35Q29.4-2.35 28.93-2.15 28.45-1.95 27.85-1.65L27.85-1.65Q26.55-1 24.45-0.23 22.35 0.55 19.5 0.55ZM49.75 0.55L49.75 0.55Q46.55 0.55 43.92-1 41.3-2.55 39.77-5.18 38.25-7.8 38.25-11L38.25-11Q38.25-14.3 39.77-16.95 41.3-19.6 43.92-21.15 46.55-22.7 49.75-22.7L49.75-22.7Q53-22.7 55.6-21.15 58.2-19.6 59.73-16.95 61.25-14.3 61.25-11L61.25-11Q61.25-7.8 59.73-5.18 58.2-2.55 55.6-1 53 0.55 49.75 0.55ZM49.75-0.7L49.75-0.7Q52.45-0.7 54.1-2.08 55.75-3.45 56.5-5.78 57.25-8.1 57.25-11L57.25-11Q57.25-14 56.5-16.35 55.75-18.7 54.1-20.08 52.45-21.45 49.75-21.45L49.75-21.45Q47.05-21.45 45.4-20.08 43.75-18.7 43-16.35 42.25-14 42.25-11L42.25-11Q42.25-8.1 43-5.78 43.75-3.45 45.4-2.08 47.05-0.7 49.75-0.7ZM70.4 0L64.25 0.15 64.25-1 65.05-1.1Q66.5-1.3 67.28-1.58 68.05-1.85 68.35-2.83 68.65-3.8 68.65-6.05L68.65-6.05 68.65-30.45Q68.65-33.05 67.58-33.77 66.5-34.5 64.6-34.5L64.6-34.5 64.25-34.5 64.25-35.65Q66.3-35.65 68.2-35.77 70.1-35.9 72.15-36.25L72.15-36.25 72.15-6.05Q72.15-3.8 72.45-2.83 72.75-1.85 73.53-1.58 74.3-1.3 75.75-1.1L75.75-1.1 76.55-1 76.55 0.15 70.4 0ZM84.2 0L78.05 0.15 78.05-1 78.85-1.1Q80.3-1.3 81.08-1.58 81.85-1.85 82.15-2.83 82.45-3.8 82.45-6.05L82.45-6.05 82.45-30.45Q82.45-33.05 81.38-33.77 80.3-34.5 78.4-34.5L78.4-34.5 78.05-34.5 78.05-35.65Q80.1-35.65 82-35.77 83.9-35.9 85.95-36.25L85.95-36.25 85.95-6.05Q85.95-3.8 86.25-2.83 86.55-1.85 87.33-1.58 88.1-1.3 89.55-1.1L89.55-1.1 90.35-1 90.35 0.15 84.2 0ZM104.3 0.55L104.3 0.55Q101 0.55 98.55-0.88 96.1-2.3 94.72-4.83 93.35-7.35 93.35-10.6L93.35-10.6Q93.35-14.1 94.85-16.82 96.35-19.55 98.88-21.13 101.4-22.7 104.45-22.7L104.45-22.7Q108.3-22.7 110.47-20.25 112.65-17.8 112.65-13.8L112.65-13.8Q112.65-13.2 112.6-12.8 112.55-12.4 112.5-12.25L112.5-12.25 97.4-12.25Q97.35-11.55 97.35-10.85L97.35-10.85Q97.35-8.2 98.2-5.93 99.05-3.65 100.77-2.3 102.5-0.95 105-0.95L105-0.95Q107.35-0.95 109.17-2.27 111-3.6 112-6.2L112-6.2 113.2-5.75Q111.1 0.55 104.3 0.55ZM104.45-21.45L104.45-21.45Q101.35-21.45 99.63-19.25 97.9-17.05 97.5-13.4L97.5-13.4 103.85-13.4Q106.1-13.4 107.27-13.93 108.45-14.45 108.88-15.23 109.3-16 109.3-16.75L109.3-16.75Q109.3-18.95 107.8-20.2 106.3-21.45 104.45-21.45ZM128.25 0.55L128.25 0.55Q124.9 0.55 122.4-0.9 119.9-2.35 118.55-4.85 117.2-7.35 117.2-10.55L117.2-10.55Q117.2-14.05 118.75-16.8 120.3-19.55 122.95-21.13 125.6-22.7 128.95-22.7L128.95-22.7Q130.55-22.7 132.25-22.2 133.95-21.7 135.13-20.7 136.3-19.7 136.3-18.25L136.3-18.25Q136.3-17.15 135.6-16.43 134.9-15.7 133.9-15.7L133.9-15.7Q132.6-15.7 131.95-16.45 131.3-17.2 131.3-17.95L131.3-17.95Q131.3-18.35 131.38-18.65 131.45-18.95 131.5-19.2L131.5-19.2Q131.6-19.45 131.65-19.73 131.7-20 131.7-20.3L131.7-20.3Q131.7-21 130.67-21.23 129.65-21.45 128.9-21.45L128.9-21.45Q125.4-21.45 123.3-18.53 121.2-15.6 121.2-10.8L121.2-10.8Q121.2-8.15 122.1-5.9 123-3.65 124.72-2.3 126.45-0.95 129-0.95L129-0.95Q131.1-0.95 133-2.13 134.9-3.3 135.75-6.15L135.75-6.15 136.95-5.75Q136-2.3 133.55-0.88 131.1 0.55 128.25 0.55ZM149.15 0.55L149.15 0.55Q146.7 0.55 145.17-0.93 143.65-2.4 143.65-5.75L143.65-5.75 143.65-20.55 139.95-20.55 139.95-21.8 141.3-21.9Q143.35-22.05 144.42-23.58 145.5-25.1 145.85-27.85L145.85-27.85 147.15-27.85 147.15-21.8 153.55-21.8 153.55-20.55 147.15-20.55 147.15-5.55Q147.15-1.15 150.25-1.15L150.25-1.15Q151.55-1.15 152.35-2.02 153.15-2.9 153.8-4.2L153.8-4.2 154.9-3.65Q154.6-2.9 154.17-2.27 153.75-1.65 153.35-1.2L153.35-1.2Q152.5-0.25 151.42 0.15 150.35 0.55 149.15 0.55ZM162.95 0L156.8 0.15 156.8-1 157.6-1.1Q159.05-1.3 159.82-1.58 160.6-1.85 160.9-2.83 161.2-3.8 161.2-6.05L161.2-6.05 161.2-16.6Q161.2-19.2 160.12-19.93 159.05-20.65 157.15-20.65L157.15-20.65 156.8-20.65 156.8-21.8Q158.85-21.8 160.75-21.93 162.65-22.05 164.7-22.4L164.7-22.4 164.7-6.05Q164.7-3.8 165-2.83 165.3-1.85 166.07-1.58 166.85-1.3 168.3-1.1L168.3-1.1 169.1-1 169.1 0.15 162.95 0ZM162.35-28.25L162.35-28.25Q161.05-28.25 160.3-29.15 159.55-30.05 159.55-31.3L159.55-31.3Q159.55-32.6 160.3-33.48 161.05-34.35 162.35-34.35L162.35-34.35Q163.8-34.35 164.47-33.48 165.15-32.6 165.15-31.3L165.15-31.3Q165.15-30.05 164.47-29.15 163.8-28.25 162.35-28.25ZM183.35 0.55L183.35 0.55Q180.15 0.55 177.52-1 174.9-2.55 173.37-5.18 171.85-7.8 171.85-11L171.85-11Q171.85-14.3 173.37-16.95 174.9-19.6 177.52-21.15 180.15-22.7 183.35-22.7L183.35-22.7Q186.6-22.7 189.2-21.15 191.8-19.6 193.32-16.95 194.85-14.3 194.85-11L194.85-11Q194.85-7.8 193.32-5.18 191.8-2.55 189.2-1 186.6 0.55 183.35 0.55ZM183.35-0.7L183.35-0.7Q186.05-0.7 187.7-2.08 189.35-3.45 190.1-5.78 190.85-8.1 190.85-11L190.85-11Q190.85-14 190.1-16.35 189.35-18.7 187.7-20.08 186.05-21.45 183.35-21.45L183.35-21.45Q180.65-21.45 179-20.08 177.35-18.7 176.6-16.35 175.85-14 175.85-11L175.85-11Q175.85-8.1 176.6-5.78 177.35-3.45 179-2.08 180.65-0.7 183.35-0.7ZM204.65 0L198.5 0.15 198.5-1 199.3-1.1Q200.75-1.3 201.52-1.58 202.3-1.85 202.6-2.83 202.9-3.8 202.9-6.05L202.9-6.05 202.9-16.6Q202.9-19.2 201.82-19.93 200.75-20.65 198.85-20.65L198.85-20.65 198.5-20.65 198.5-21.8Q200.55-21.8 202.45-21.93 204.35-22.05 206.4-22.4L206.4-22.4 206.4-18.35Q207.55-20.05 209.65-21.38 211.75-22.7 214.55-22.7L214.55-22.7Q217.95-22.7 219.92-20.98 221.9-19.25 221.9-16.05L221.9-16.05 221.9-6.05Q221.9-3.8 222.2-2.83 222.5-1.85 223.27-1.58 224.05-1.3 225.5-1.1L225.5-1.1 226.3-1 226.3 0.15 220.15 0 214 0.15 214-1 214.8-1.1Q216.25-1.3 217.02-1.58 217.8-1.85 218.1-2.83 218.4-3.8 218.4-6.05L218.4-6.05 218.4-16.05Q218.4-18.55 217.1-19.88 215.8-21.2 213.45-21.2L213.45-21.2Q211.65-21.2 210.2-20.38 208.75-19.55 207.8-18.35 206.85-17.15 206.4-16.05L206.4-16.05 206.4-6.05Q206.4-3.8 206.7-2.83 207-1.85 207.77-1.58 208.55-1.3 210-1.1L210-1.1 210.8-1 210.8 0.15 204.65 0ZM253.8 0.55L253.8 0.55Q250.6 0.55 247.97-1 245.35-2.55 243.82-5.18 242.3-7.8 242.3-11L242.3-11Q242.3-14.3 243.82-16.95 245.35-19.6 247.97-21.15 250.6-22.7 253.8-22.7L253.8-22.7Q257.05-22.7 259.65-21.15 262.25-19.6 263.77-16.95 265.3-14.3 265.3-11L265.3-11Q265.3-7.8 263.77-5.18 262.25-2.55 259.65-1 257.05 0.55 253.8 0.55ZM253.8-0.7L253.8-0.7Q256.5-0.7 258.15-2.08 259.8-3.45 260.55-5.78 261.3-8.1 261.3-11L261.3-11Q261.3-14 260.55-16.35 259.8-18.7 258.15-20.08 256.5-21.45 253.8-21.45L253.8-21.45Q251.1-21.45 249.45-20.08 247.8-18.7 247.05-16.35 246.3-14 246.3-11L246.3-11Q246.3-8.1 247.05-5.78 247.8-3.45 249.45-2.08 251.1-0.7 253.8-0.7ZM274.95 0L268.8 0.15 268.8-1 269.6-1.1Q271.05-1.3 271.82-1.58 272.6-1.85 272.9-2.83 273.2-3.8 273.2-6.05L273.2-6.05 273.2-20.55 268.9-20.55 268.9-21.8 273.2-21.8 273.2-27.5Q273.2-32.1 275.22-34.15 277.25-36.2 281.2-36.2L281.2-36.2Q283.75-36.2 285.45-35.18 287.15-34.15 287.15-32.15L287.15-32.15Q287.15-30.85 286.42-30.18 285.7-29.5 284.7-29.5L284.7-29.5Q283.75-29.5 283.12-30.15 282.5-30.8 282.5-31.6L282.5-31.6Q282.5-32.1 282.6-32.45 282.7-32.8 282.8-33.1L282.8-33.1Q282.95-33.5 282.95-33.75L282.95-33.75Q282.95-34.4 282.4-34.68 281.85-34.95 281.2-34.95L281.2-34.95Q279.3-34.95 278.32-33.95 277.35-32.95 277.02-31.25 276.7-29.55 276.7-27.5L276.7-27.5 276.7-21.8 281.85-21.8 281.85-20.55 276.7-20.55 276.7-6.05Q276.7-3.8 277-2.83 277.3-1.85 278.07-1.58 278.85-1.3 280.3-1.1L280.3-1.1 281.1-1 281.1 0.15 274.95 0ZM302 0L295.95 0.15 295.95-1.1 296.4-1.15Q298.15-1.4 299.27-1.85 300.4-2.3 301.22-3.33 302.05-4.35 302.8-6.15L302.8-6.15 314.9-35.5 316.6-35.5 328.4-6.15Q329.4-3.7 330.55-2.55 331.7-1.4 333.7-1.2L333.7-1.2 334.7-1.1 334.7 0.15 328.5 0 320.5 0.15 320.5-1.1 321.5-1.2Q323.25-1.4 324-1.95 324.75-2.5 324.75-3.5L324.75-3.5Q324.75-4.5 324.05-6.2L324.05-6.2 321.45-12.7 307.35-12.7 304.65-6.2Q304.3-5.3 304.05-4.58 303.8-3.85 303.8-3.3L303.8-3.3Q303.8-2.35 304.62-1.85 305.45-1.35 307.35-1.2L307.35-1.2 308.35-1.1 308.35 0.15 302 0ZM314.55-30.15L308-14.3 320.85-14.3 314.55-30.15ZM340.85 0L334.7 0.15 334.7-1 335.5-1.1Q336.95-1.3 337.72-1.58 338.5-1.85 338.8-2.83 339.1-3.8 339.1-6.05L339.1-6.05 339.1-30.45Q339.1-33.05 338.02-33.77 336.95-34.5 335.05-34.5L335.05-34.5 334.7-34.5 334.7-35.65Q336.75-35.65 338.65-35.77 340.55-35.9 342.6-36.25L342.6-36.25 342.6-6.05Q342.6-3.8 342.9-2.83 343.2-1.85 343.97-1.58 344.75-1.3 346.2-1.1L346.2-1.1 347-1 347 0.15 340.85 0ZM359.65 0.55L359.65 0.55Q356.4 0.55 354.52-1.07 352.65-2.7 352.65-5.9L352.65-5.9 352.65-15.6Q352.65-17.85 352.35-18.82 352.05-19.8 351.27-20.1 350.5-20.4 349.05-20.55L349.05-20.55 348.25-20.65 348.25-21.8 354.4-21.65 356.15-21.7 356.15-6.1Q356.15-3.65 357.4-2.35 358.65-1.05 360.8-1.05L360.8-1.05Q362.65-1.05 364.07-1.88 365.5-2.7 366.52-4 367.55-5.3 368.15-6.65L368.15-6.65 368.15-15.6Q368.15-17.85 367.85-18.82 367.55-19.8 366.77-20.1 366-20.4 364.55-20.55L364.55-20.55 363.75-20.65 363.75-21.8 369.9-21.65 371.65-21.7 371.65-5.55Q371.65-3.65 372.12-2.73 372.6-1.8 373.52-1.5 374.45-1.2 375.8-1.2L375.8-1.2 375.8-0.05Q373.75-0.05 372.05 0 370.35 0.05 368.15 0.45L368.15 0.45 368.15-4.15Q367.65-3.35 367.1-2.75L367.1-2.75Q365.8-1.3 363.95-0.38 362.1 0.55 359.65 0.55ZM383.85 0L377.7 0.15 377.7-1 378.5-1.1Q379.95-1.3 380.72-1.58 381.5-1.85 381.8-2.83 382.1-3.8 382.1-6.05L382.1-6.05 382.1-16.6Q382.1-18.4 381.57-19.28 381.05-20.15 380.05-20.4 379.05-20.65 377.7-20.65L377.7-20.65 377.7-21.8Q379.75-21.8 381.65-21.93 383.55-22.05 385.6-22.4L385.6-22.4 385.6-18.5Q386.7-20.2 388.67-21.45 390.65-22.7 393.25-22.7L393.25-22.7Q395.9-22.7 397.67-21.58 399.45-20.45 400.05-18.05L400.05-18.05Q401.1-19.85 403.15-21.28 405.2-22.7 408-22.7L408-22.7Q411.25-22.7 413.17-21 415.1-19.3 415.1-15.6L415.1-15.6 415.1-6.05Q415.1-3.85 415.37-2.88 415.65-1.9 416.42-1.6 417.2-1.3 418.65-1.1L418.65-1.1 419.45-1 419.45 0.15 413.35 0 407.7 0.15 407.7-1 408.5-1.1Q409.75-1.25 410.42-1.55 411.1-1.85 411.35-2.83 411.6-3.8 411.6-6.05L411.6-6.05 411.6-16.45Q411.6-18.65 410.4-19.93 409.2-21.2 407-21.2L407-21.2Q405.2-21.2 403.85-20.4 402.5-19.6 401.62-18.4 400.75-17.2 400.35-16.05L400.35-16.05Q400.35-15.85 400.35-15.6L400.35-15.6 400.35-6.05Q400.35-3.8 400.6-2.83 400.85-1.85 401.52-1.58 402.2-1.3 403.45-1.1L403.45-1.1 404.25-1 404.25 0.15 398.6 0 392.95 0.15 392.95-1 393.75-1.1Q395-1.3 395.67-1.58 396.35-1.85 396.6-2.83 396.85-3.8 396.85-6.05L396.85-6.05 396.85-16.45Q396.85-18.65 395.65-19.93 394.45-21.2 392.25-21.2L392.25-21.2Q390.5-21.2 389.15-20.4 387.8-19.6 386.9-18.4 386-17.2 385.6-16.05L385.6-16.05 385.6-6.05Q385.6-3.8 385.85-2.83 386.1-1.85 386.77-1.58 387.45-1.3 388.7-1.1L388.7-1.1 389.5-1 389.5 0.15 383.85 0ZM427.55 0L421.4 0.15 421.4-1 422.2-1.1Q423.65-1.3 424.42-1.58 425.2-1.85 425.5-2.83 425.8-3.8 425.8-6.05L425.8-6.05 425.8-16.6Q425.8-19.2 424.72-19.93 423.65-20.65 421.75-20.65L421.75-20.65 421.4-20.65 421.4-21.8Q423.45-21.8 425.35-21.93 427.25-22.05 429.3-22.4L429.3-22.4 429.3-18.35Q430.45-20.05 432.55-21.38 434.65-22.7 437.45-22.7L437.45-22.7Q440.85-22.7 442.82-20.98 444.8-19.25 444.8-16.05L444.8-16.05 444.8-6.05Q444.8-3.8 445.1-2.83 445.4-1.85 446.17-1.58 446.95-1.3 448.4-1.1L448.4-1.1 449.2-1 449.2 0.15 443.05 0 436.9 0.15 436.9-1 437.7-1.1Q439.15-1.3 439.92-1.58 440.7-1.85 441-2.83 441.3-3.8 441.3-6.05L441.3-6.05 441.3-16.05Q441.3-18.55 440-19.88 438.7-21.2 436.35-21.2L436.35-21.2Q434.55-21.2 433.1-20.38 431.65-19.55 430.7-18.35 429.75-17.15 429.3-16.05L429.3-16.05 429.3-6.05Q429.3-3.8 429.6-2.83 429.9-1.85 430.67-1.58 431.45-1.3 432.9-1.1L432.9-1.1 433.7-1 433.7 0.15 427.55 0ZM457.3 0L451.15 0.15 451.15-1 451.95-1.1Q453.4-1.3 454.17-1.58 454.95-1.85 455.25-2.83 455.55-3.8 455.55-6.05L455.55-6.05 455.55-16.6Q455.55-19.2 454.47-19.93 453.4-20.65 451.5-20.65L451.5-20.65 451.15-20.65 451.15-21.8Q453.2-21.8 455.1-21.93 457-22.05 459.05-22.4L459.05-22.4 459.05-6.05Q459.05-3.8 459.35-2.83 459.65-1.85 460.42-1.58 461.2-1.3 462.65-1.1L462.65-1.1 463.45-1 463.45 0.15 457.3 0ZM456.7-28.25L456.7-28.25Q455.4-28.25 454.65-29.15 453.9-30.05 453.9-31.3L453.9-31.3Q453.9-32.6 454.65-33.48 455.4-34.35 456.7-34.35L456.7-34.35Q458.15-34.35 458.82-33.48 459.5-32.6 459.5-31.3L459.5-31.3Q459.5-30.05 458.82-29.15 458.15-28.25 456.7-28.25ZM485.2 0.55L485.2 0.55Q482.8 0.55 481.22-0.68 479.65-1.9 479.65-4.1L479.65-4.1Q479.65-6.3 481.6-8.03 483.55-9.75 486.15-11.15L486.15-11.15Q488.1-12.25 490.05-13.05 492-13.85 493.4-14.4L493.4-14.4 493.4-16Q493.4-18.75 492.37-20.1 491.35-21.45 488.5-21.45L488.5-21.45Q487.15-21.45 485.85-21.1 484.55-20.75 484.55-19.8L484.55-19.8Q484.55-19.6 484.62-19.35 484.7-19.1 484.75-18.85L484.75-18.85Q485-18.2 485-17.5L485-17.5Q485-16.55 484.32-16.03 483.65-15.5 482.7-15.5L482.7-15.5Q481.8-15.5 481.2-16.18 480.6-16.85 480.6-17.8L480.6-17.8Q480.6-19.6 481.97-20.68 483.35-21.75 485.35-22.23 487.35-22.7 489.2-22.7L489.2-22.7Q493.2-22.7 495.05-20.85 496.9-19 496.9-14.8L496.9-14.8 496.9-5.8Q496.9-3.6 497.22-2.4 497.55-1.2 498.7-1.2L498.7-1.2Q499.45-1.2 500-1.75 500.55-2.3 500.75-2.95L500.75-2.95 501.65-2.6Q501.25-1.15 500.22-0.3 499.2 0.55 497.4 0.55L497.4 0.55Q495.2 0.55 494.37-0.73 493.55-2 493.45-4.1L493.45-4.1Q492.05-1.85 489.9-0.65 487.75 0.55 485.2 0.55ZM483.55-4.35L483.55-4.35Q483.55-2.95 484.37-2.13 485.2-1.3 486.8-1.3L486.8-1.3Q488.25-1.3 489.57-2 490.9-2.7 491.9-3.78 492.9-4.85 493.4-6.1L493.4-6.1 493.4-13.4Q491.75-12.7 490.02-11.78 488.3-10.85 486.82-9.7 485.35-8.55 484.45-7.23 483.55-5.9 483.55-4.35ZM509.2 0L503.05 0.15 503.05-1 503.85-1.1Q505.3-1.3 506.07-1.58 506.85-1.85 507.15-2.83 507.45-3.8 507.45-6.05L507.45-6.05 507.45-16.6Q507.45-19.2 506.37-19.93 505.3-20.65 503.4-20.65L503.4-20.65 503.05-20.65 503.05-21.8Q505.1-21.8 507-21.93 508.9-22.05 510.95-22.4L510.95-22.4 510.95-18.35Q512.1-20.05 514.2-21.38 516.3-22.7 519.1-22.7L519.1-22.7Q522.5-22.7 524.47-20.98 526.45-19.25 526.45-16.05L526.45-16.05 526.45-6.05Q526.45-3.8 526.75-2.83 527.05-1.85 527.82-1.58 528.6-1.3 530.05-1.1L530.05-1.1 530.85-1 530.85 0.15 524.7 0 518.55 0.15 518.55-1 519.35-1.1Q520.8-1.3 521.57-1.58 522.35-1.85 522.65-2.83 522.95-3.8 522.95-6.05L522.95-6.05 522.95-16.05Q522.95-18.55 521.65-19.88 520.35-21.2 518-21.2L518-21.2Q516.2-21.2 514.75-20.38 513.3-19.55 512.35-18.35 511.4-17.15 510.95-16.05L510.95-16.05 510.95-6.05Q510.95-3.8 511.25-2.83 511.55-1.85 512.32-1.58 513.1-1.3 514.55-1.1L514.55-1.1 515.35-1 515.35 0.15 509.2 0ZM543.8 0.55L543.8 0.55Q540.95 0.55 538.65-1 536.35-2.55 535-5.23 533.65-7.9 533.65-11.15L533.65-11.15Q533.65-14.4 535-17 536.35-19.6 538.7-21.15 541.05-22.7 544-22.7L544-22.7Q546.1-22.7 547.85-21.83 549.6-20.95 550.75-19.85L550.75-19.85 550.75-30.45Q550.75-33.05 549.67-33.77 548.6-34.5 546.7-34.5L546.7-34.5 546.35-34.5 546.35-35.65Q548.4-35.65 550.3-35.77 552.2-35.9 554.25-36.25L554.25-36.25 554.25-5.45Q554.25-2.65 555.32-1.9 556.4-1.15 558.4-1.15L558.4-1.15 558.4 0 556.35 0Q555.25 0 554.2 0.08 553.15 0.15 551.85 0.4L551.85 0.4 551.2-3.1Q549.85-1.5 547.97-0.48 546.1 0.55 543.8 0.55ZM537.65-11.15L537.65-11.15Q537.65-8.25 538.37-5.95 539.1-3.65 540.57-2.3 542.05-0.95 544.3-0.95L544.3-0.95Q546.45-0.95 548.02-1.93 549.6-2.9 550.75-4.3L550.75-4.3 550.75-17.8Q549.9-19.1 548.2-20.15 546.5-21.2 544.45-21.2L544.45-21.2Q542.15-21.2 540.65-19.88 539.15-18.55 538.4-16.28 537.65-14 537.65-11.15ZM587.3 0.55L587.3 0.55Q585.3 0.55 583.67-0.1 582.05-0.75 580.75-1.4L580.75-1.4Q579.65-2 578.92-2.3 578.2-2.6 577.65-2.6L577.65-2.6Q576.95-2.6 576.67-2.02 576.4-1.45 576.25-0.75L576.25-0.75 576.1 0 574.85 0 575.1-5.9 574.95-12.35 576.2-12.35 576.75-10Q577.3-7.8 578.72-5.7 580.15-3.6 582.32-2.25 584.5-0.9 587.3-0.9L587.3-0.9Q588.85-0.9 590.27-1.58 591.7-2.25 592.62-3.65 593.55-5.05 593.55-7.3L593.55-7.3Q593.55-10.65 591.37-12.7 589.2-14.75 585.35-16.6L585.35-16.6 583.25-17.6Q579.5-19.4 577.67-21.58 575.85-23.75 575.85-27.15L575.85-27.15Q575.85-29.8 577.15-31.85 578.45-33.9 580.72-35.05 583-36.2 585.95-36.2L585.95-36.2Q588-36.2 589.4-35.65 590.8-35.1 591.6-34.7L591.6-34.7Q592.9-34.05 593.65-34.05L593.65-34.05Q594.45-34.05 594.6-35.6L594.6-35.6 595.85-35.6 595.7-30.8 595.8-25.95 594.55-25.95Q594.25-28.75 593-30.73 591.75-32.7 589.97-33.75 588.2-34.8 586.2-34.8L586.2-34.8Q583.25-34.8 581.42-33.1 579.6-31.4 579.6-28.75L579.6-28.75Q579.6-25.9 581.45-24.28 583.3-22.65 586.25-21.2L586.25-21.2 588.3-20.2Q591.05-18.85 593.02-17.43 595-16 596.07-14.1 597.15-12.2 597.15-9.35L597.15-9.35Q597.15-6.4 595.82-4.15 594.5-1.9 592.27-0.68 590.05 0.55 587.3 0.55ZM610.6 0.55L610.6 0.55Q608.15 0.55 606.62-0.93 605.1-2.4 605.1-5.75L605.1-5.75 605.1-20.55 601.4-20.55 601.4-21.8 602.75-21.9Q604.8-22.05 605.87-23.58 606.95-25.1 607.3-27.85L607.3-27.85 608.6-27.85 608.6-21.8 615-21.8 615-20.55 608.6-20.55 608.6-5.55Q608.6-1.15 611.7-1.15L611.7-1.15Q613-1.15 613.8-2.02 614.6-2.9 615.25-4.2L615.25-4.2 616.35-3.65Q616.05-2.9 615.62-2.27 615.2-1.65 614.8-1.2L614.8-1.2Q613.95-0.25 612.87 0.15 611.8 0.55 610.6 0.55ZM628.75 0.55L628.75 0.55Q625.5 0.55 623.62-1.07 621.75-2.7 621.75-5.9L621.75-5.9 621.75-15.6Q621.75-17.85 621.45-18.82 621.15-19.8 620.37-20.1 619.6-20.4 618.15-20.55L618.15-20.55 617.35-20.65 617.35-21.8 623.5-21.65 625.25-21.7 625.25-6.1Q625.25-3.65 626.5-2.35 627.75-1.05 629.9-1.05L629.9-1.05Q631.75-1.05 633.17-1.88 634.6-2.7 635.62-4 636.65-5.3 637.25-6.65L637.25-6.65 637.25-15.6Q637.25-17.85 636.95-18.82 636.65-19.8 635.87-20.1 635.1-20.4 633.65-20.55L633.65-20.55 632.85-20.65 632.85-21.8 639-21.65 640.75-21.7 640.75-5.55Q640.75-3.65 641.22-2.73 641.7-1.8 642.62-1.5 643.55-1.2 644.9-1.2L644.9-1.2 644.9-0.05Q642.85-0.05 641.15 0 639.45 0.05 637.25 0.45L637.25 0.45 637.25-4.15Q636.75-3.35 636.2-2.75L636.2-2.75Q634.9-1.3 633.05-0.38 631.2 0.55 628.75 0.55ZM657.8 0.55L657.8 0.55Q654.95 0.55 652.65-1 650.35-2.55 649-5.23 647.65-7.9 647.65-11.15L647.65-11.15Q647.65-14.4 649-17 650.35-19.6 652.7-21.15 655.05-22.7 658-22.7L658-22.7Q660.1-22.7 661.85-21.83 663.6-20.95 664.75-19.85L664.75-19.85 664.75-30.45Q664.75-33.05 663.67-33.77 662.6-34.5 660.7-34.5L660.7-34.5 660.35-34.5 660.35-35.65Q662.4-35.65 664.3-35.77 666.2-35.9 668.25-36.25L668.25-36.25 668.25-5.45Q668.25-2.65 669.32-1.9 670.4-1.15 672.4-1.15L672.4-1.15 672.4 0 670.35 0Q669.25 0 668.2 0.08 667.15 0.15 665.85 0.4L665.85 0.4 665.2-3.1Q663.85-1.5 661.97-0.48 660.1 0.55 657.8 0.55ZM651.65-11.15L651.65-11.15Q651.65-8.25 652.37-5.95 653.1-3.65 654.57-2.3 656.05-0.95 658.3-0.95L658.3-0.95Q660.45-0.95 662.02-1.93 663.6-2.9 664.75-4.3L664.75-4.3 664.75-17.8Q663.9-19.1 662.2-20.15 660.5-21.2 658.45-21.2L658.45-21.2Q656.15-21.2 654.65-19.88 653.15-18.55 652.4-16.28 651.65-14 651.65-11.15ZM685.85 0.55L685.85 0.55Q682.55 0.55 680.1-0.88 677.65-2.3 676.27-4.83 674.9-7.35 674.9-10.6L674.9-10.6Q674.9-14.1 676.4-16.82 677.9-19.55 680.42-21.13 682.95-22.7 686-22.7L686-22.7Q689.85-22.7 692.02-20.25 694.2-17.8 694.2-13.8L694.2-13.8Q694.2-13.2 694.15-12.8 694.1-12.4 694.05-12.25L694.05-12.25 678.95-12.25Q678.9-11.55 678.9-10.85L678.9-10.85Q678.9-8.2 679.75-5.93 680.6-3.65 682.32-2.3 684.05-0.95 686.55-0.95L686.55-0.95Q688.9-0.95 690.72-2.27 692.55-3.6 693.55-6.2L693.55-6.2 694.75-5.75Q692.65 0.55 685.85 0.55ZM686-21.45L686-21.45Q682.9-21.45 681.17-19.25 679.45-17.05 679.05-13.4L679.05-13.4 685.4-13.4Q687.65-13.4 688.82-13.93 690-14.45 690.42-15.23 690.85-16 690.85-16.75L690.85-16.75Q690.85-18.95 689.35-20.2 687.85-21.45 686-21.45ZM704.05 0L697.9 0.15 697.9-1 698.7-1.1Q700.15-1.3 700.92-1.58 701.7-1.85 702-2.83 702.3-3.8 702.3-6.05L702.3-6.05 702.3-16.6Q702.3-19.2 701.22-19.93 700.15-20.65 698.25-20.65L698.25-20.65 697.9-20.65 697.9-21.8Q699.95-21.8 701.85-21.93 703.75-22.05 705.8-22.4L705.8-22.4 705.8-18.35Q706.95-20.05 709.05-21.38 711.15-22.7 713.95-22.7L713.95-22.7Q717.35-22.7 719.32-20.98 721.3-19.25 721.3-16.05L721.3-16.05 721.3-6.05Q721.3-3.8 721.6-2.83 721.9-1.85 722.67-1.58 723.45-1.3 724.9-1.1L724.9-1.1 725.7-1 725.7 0.15 719.55 0 713.4 0.15 713.4-1 714.2-1.1Q715.65-1.3 716.42-1.58 717.2-1.85 717.5-2.83 717.8-3.8 717.8-6.05L717.8-6.05 717.8-16.05Q717.8-18.55 716.5-19.88 715.2-21.2 712.85-21.2L712.85-21.2Q711.05-21.2 709.6-20.38 708.15-19.55 707.2-18.35 706.25-17.15 705.8-16.05L705.8-16.05 705.8-6.05Q705.8-3.8 706.1-2.83 706.4-1.85 707.17-1.58 707.95-1.3 709.4-1.1L709.4-1.1 710.2-1 710.2 0.15 704.05 0ZM736.45 0.55L736.45 0.55Q734 0.55 732.47-0.93 730.95-2.4 730.95-5.75L730.95-5.75 730.95-20.55 727.25-20.55 727.25-21.8 728.6-21.9Q730.65-22.05 731.72-23.58 732.8-25.1 733.15-27.85L733.15-27.85 734.45-27.85 734.45-21.8 740.85-21.8 740.85-20.55 734.45-20.55 734.45-5.55Q734.45-1.15 737.55-1.15L737.55-1.15Q738.85-1.15 739.65-2.02 740.45-2.9 741.1-4.2L741.1-4.2 742.2-3.65Q741.9-2.9 741.47-2.27 741.05-1.65 740.65-1.2L740.65-1.2Q739.8-0.25 738.72 0.15 737.65 0.55 736.45 0.55ZM765.15 0L757.9 0.15 757.9-1.1 758.9-1.2Q760.65-1.4 761.57-1.73 762.5-2.05 762.85-3.13 763.2-4.2 763.2-6.65L763.2-6.65 763.2-28.85Q763.2-31.35 762.85-32.4 762.5-33.45 761.57-33.77 760.65-34.1 758.9-34.3L758.9-34.3 757.9-34.4 757.9-35.65 765.3-35.5 772.1-35.5Q775.1-35.5 777.7-35.13 780.3-34.75 782.25-33.73 784.2-32.7 785.3-30.75 786.4-28.8 786.4-25.7L786.4-25.7Q786.4-21.25 783.05-18.5 779.7-15.75 773.3-15.75L773.3-15.75 767.45-15.75 767.45-6.65Q767.45-4.2 767.88-3.13 768.3-2.05 769.4-1.73 770.5-1.4 772.5-1.2L772.5-1.2 773.6-1.1 773.6 0.15 765.15 0ZM774.05-34.1L774.05-34.1 767.45-34.1 767.45-17.25 773.3-17.25Q776.75-17.25 778.55-18.25 780.35-19.25 781-21.15 781.65-23.05 781.65-25.7L781.65-25.7Q781.65-28.55 780.92-30.23 780.2-31.9 779.02-32.75 777.85-33.6 776.52-33.85 775.2-34.1 774.05-34.1ZM800.4 0.55L800.4 0.55Q797.2 0.55 794.57-1 791.95-2.55 790.42-5.18 788.9-7.8 788.9-11L788.9-11Q788.9-14.3 790.42-16.95 791.95-19.6 794.57-21.15 797.2-22.7 800.4-22.7L800.4-22.7Q803.65-22.7 806.25-21.15 808.85-19.6 810.38-16.95 811.9-14.3 811.9-11L811.9-11Q811.9-7.8 810.38-5.18 808.85-2.55 806.25-1 803.65 0.55 800.4 0.55ZM800.4-0.7L800.4-0.7Q803.1-0.7 804.75-2.08 806.4-3.45 807.15-5.78 807.9-8.1 807.9-11L807.9-11Q807.9-14 807.15-16.35 806.4-18.7 804.75-20.08 803.1-21.45 800.4-21.45L800.4-21.45Q797.7-21.45 796.05-20.08 794.4-18.7 793.65-16.35 792.9-14 792.9-11L792.9-11Q792.9-8.1 793.65-5.78 794.4-3.45 796.05-2.08 797.7-0.7 800.4-0.7ZM821.7 0L815.55 0.15 815.55-1 816.35-1.1Q817.8-1.3 818.57-1.58 819.35-1.85 819.65-2.83 819.95-3.8 819.95-6.05L819.95-6.05 819.95-16.45Q819.95-18.4 819.42-19.3 818.9-20.2 817.9-20.43 816.9-20.65 815.55-20.65L815.55-20.65 815.55-21.8Q817.6-21.8 819.5-21.95 821.4-22.1 823.45-22.4L823.45-22.4 822.9-16.65 823.1-16.65Q824.2-20 825.8-21.35 827.4-22.7 829.25-22.7L829.25-22.7Q831.35-22.7 832.05-21.68 832.75-20.65 832.75-19.7L832.75-19.7Q832.75-18.6 832.1-17.9 831.45-17.2 830.35-17.2L830.35-17.2Q829.3-17.2 828.75-17.7 828.2-18.2 828.2-18.85L828.2-18.85Q828.2-19.35 828.32-19.8 828.45-20.25 828.45-20.5L828.45-20.5Q828.45-21 827.75-21L827.75-21Q827.05-21 826.27-20.35 825.5-19.7 824.95-18.55L824.95-18.55Q824.5-17.6 824.1-16.45 823.7-15.3 823.45-13.95L823.45-13.95 823.45-6.05Q823.45-3.8 823.75-2.83 824.05-1.85 824.82-1.58 825.6-1.3 827.05-1.1L827.05-1.1 827.85-1 827.85 0.15 821.7 0ZM844.45 0.55L844.45 0.55Q842 0.55 840.48-0.93 838.95-2.4 838.95-5.75L838.95-5.75 838.95-20.55 835.25-20.55 835.25-21.8 836.6-21.9Q838.65-22.05 839.73-23.58 840.8-25.1 841.15-27.85L841.15-27.85 842.45-27.85 842.45-21.8 848.85-21.8 848.85-20.55 842.45-20.55 842.45-5.55Q842.45-1.15 845.55-1.15L845.55-1.15Q846.85-1.15 847.65-2.02 848.45-2.9 849.1-4.2L849.1-4.2 850.2-3.65Q849.9-2.9 849.48-2.27 849.05-1.65 848.65-1.2L848.65-1.2Q847.8-0.25 846.73 0.15 845.65 0.55 844.45 0.55ZM858.1 0L851.95 0.15 851.95-1 852.75-1.1Q854.2-1.3 854.98-1.58 855.75-1.85 856.05-2.83 856.35-3.8 856.35-6.05L856.35-6.05 856.35-20.55 852.05-20.55 852.05-21.8 856.35-21.8 856.35-27.5Q856.35-32.1 858.38-34.15 860.4-36.2 864.35-36.2L864.35-36.2Q866.9-36.2 868.6-35.18 870.3-34.15 870.3-32.15L870.3-32.15Q870.3-30.85 869.58-30.18 868.85-29.5 867.85-29.5L867.85-29.5Q866.9-29.5 866.28-30.15 865.65-30.8 865.65-31.6L865.65-31.6Q865.65-32.1 865.75-32.45 865.85-32.8 865.95-33.1L865.95-33.1Q866.1-33.5 866.1-33.75L866.1-33.75Q866.1-34.4 865.55-34.68 865-34.95 864.35-34.95L864.35-34.95Q862.45-34.95 861.48-33.95 860.5-32.95 860.18-31.25 859.85-29.55 859.85-27.5L859.85-27.5 859.85-21.8 865-21.8 865-20.55 859.85-20.55 859.85-6.05Q859.85-3.8 860.15-2.83 860.45-1.85 861.23-1.58 862-1.3 863.45-1.1L863.45-1.1 864.25-1 864.25 0.15 858.1 0ZM880.4 0.55L880.4 0.55Q877.2 0.55 874.58-1 871.95-2.55 870.43-5.18 868.9-7.8 868.9-11L868.9-11Q868.9-14.3 870.43-16.95 871.95-19.6 874.58-21.15 877.2-22.7 880.4-22.7L880.4-22.7Q883.65-22.7 886.25-21.15 888.85-19.6 890.38-16.95 891.9-14.3 891.9-11L891.9-11Q891.9-7.8 890.38-5.18 888.85-2.55 886.25-1 883.65 0.55 880.4 0.55ZM880.4-0.7L880.4-0.7Q883.1-0.7 884.75-2.08 886.4-3.45 887.15-5.78 887.9-8.1 887.9-11L887.9-11Q887.9-14 887.15-16.35 886.4-18.7 884.75-20.08 883.1-21.45 880.4-21.45L880.4-21.45Q877.7-21.45 876.05-20.08 874.4-18.7 873.65-16.35 872.9-14 872.9-11L872.9-11Q872.9-8.1 873.65-5.78 874.4-3.45 876.05-2.08 877.7-0.7 880.4-0.7ZM901.05 0L894.9 0.15 894.9-1 895.7-1.1Q897.15-1.3 897.93-1.58 898.7-1.85 899-2.83 899.3-3.8 899.3-6.05L899.3-6.05 899.3-30.45Q899.3-33.05 898.23-33.77 897.15-34.5 895.25-34.5L895.25-34.5 894.9-34.5 894.9-35.65Q896.95-35.65 898.85-35.77 900.75-35.9 902.8-36.25L902.8-36.25 902.8-6.05Q902.8-3.8 903.1-2.83 903.4-1.85 904.18-1.58 904.95-1.3 906.4-1.1L906.4-1.1 907.2-1 907.2 0.15 901.05 0ZM915.5 0L909.35 0.15 909.35-1 910.15-1.1Q911.6-1.3 912.38-1.58 913.15-1.85 913.45-2.83 913.75-3.8 913.75-6.05L913.75-6.05 913.75-16.6Q913.75-19.2 912.68-19.93 911.6-20.65 909.7-20.65L909.7-20.65 909.35-20.65 909.35-21.8Q911.4-21.8 913.3-21.93 915.2-22.05 917.25-22.4L917.25-22.4 917.25-6.05Q917.25-3.8 917.55-2.83 917.85-1.85 918.63-1.58 919.4-1.3 920.85-1.1L920.85-1.1 921.65-1 921.65 0.15 915.5 0ZM914.9-28.25L914.9-28.25Q913.6-28.25 912.85-29.15 912.1-30.05 912.1-31.3L912.1-31.3Q912.1-32.6 912.85-33.48 913.6-34.35 914.9-34.35L914.9-34.35Q916.35-34.35 917.03-33.48 917.7-32.6 917.7-31.3L917.7-31.3Q917.7-30.05 917.03-29.15 916.35-28.25 914.9-28.25ZM935.9 0.55L935.9 0.55Q932.7 0.55 930.08-1 927.45-2.55 925.93-5.18 924.4-7.8 924.4-11L924.4-11Q924.4-14.3 925.93-16.95 927.45-19.6 930.08-21.15 932.7-22.7 935.9-22.7L935.9-22.7Q939.15-22.7 941.75-21.15 944.35-19.6 945.88-16.95 947.4-14.3 947.4-11L947.4-11Q947.4-7.8 945.88-5.18 944.35-2.55 941.75-1 939.15 0.55 935.9 0.55ZM935.9-0.7L935.9-0.7Q938.6-0.7 940.25-2.08 941.9-3.45 942.65-5.78 943.4-8.1 943.4-11L943.4-11Q943.4-14 942.65-16.35 941.9-18.7 940.25-20.08 938.6-21.45 935.9-21.45L935.9-21.45Q933.2-21.45 931.55-20.08 929.9-18.7 929.15-16.35 928.4-14 928.4-11L928.4-11Q928.4-8.1 929.15-5.78 929.9-3.45 931.55-2.08 933.2-0.7 935.9-0.7Z" opacity="1" transform="matrix(1,0,0,1,0,0)" fill="#000000" class="slogan-text-1" data-fill-palette-color="secondary" id="text-1"></path></svg></g></svg></g></svg></g></svg></g><g transform="matrix(1,0,0,1,120.84423936133217,0)"><svg viewBox="0 0 153.83152127733564 153.83152127733567" height="153.83152127733567" width="153.83152127733564"><g><svg></svg></g><g id="icon-0"><svg viewBox="0 0 153.83152127733564 153.83152127733567" height="153.83152127733567" width="153.83152127733564"><g><path transform="scale(1.53832,1.53832)" d="M30 100c-16.569 0-30-13.431-30-30v-40c0-16.569 13.431-30 30-30h40c16.569 0 30 13.431 30 30v40c0 16.569-13.431 30-30 30z" fill="#000000" fill-rule="nonzero" stroke="none" stroke-width="1" stroke-linecap="butt" stroke-linejoin="miter" stroke-miterlimit="10" stroke-dasharray="" stroke-dashoffset="0" font-family="none" font-weight="none" font-size="none" text-anchor="none" style="mix-blend-mode: normal" data-fill-palette-color="accent"></path></g><g transform="matrix(1,0,0,1,30.766304255467112,30.766304255467126)"><svg viewBox="0 0 92.29891276640141 92.29891276640141" height="92.29891276640141" width="92.29891276640141"><g><svg xmlns="http://www.w3.org/2000/svg" xmlns:xlink="http://www.w3.org/1999/xlink" version="1.1" x="0" y="0" viewBox="4.999999999999999 5 90 90" enable-background="new 0 0 100 100" xml:space="preserve" height="92.29891276640141" width="92.29891276640141" class="icon-dxe-0" data-fill-palette-color="quaternary" id="dxe-0"><g fill="#ffffff" data-fill-palette-color="quaternary"><g display="none" fill="#ffffff" data-fill-palette-color="quaternary"><g display="inline" fill="#ffffff" data-fill-palette-color="quaternary"><g fill="#ffffff" data-fill-palette-color="quaternary"><path d="M25.322 6.452V20.968H95V6.452z" fill="#ffffff" data-fill-palette-color="quaternary"></path></g></g><rect x="51.451" y="26.774" display="inline" width="43.549" height="8.709" fill="#ffffff" data-fill-palette-color="quaternary"></rect><rect x="51.451" y="41.29" display="inline" width="43.549" height="8.71" fill="#ffffff" data-fill-palette-color="quaternary"></rect><rect x="51.451" y="55.807" display="inline" width="43.549" height="8.711" fill="#ffffff" data-fill-palette-color="quaternary"></rect><rect x="51.451" y="70.322" display="inline" width="43.549" height="8.709" fill="#ffffff" data-fill-palette-color="quaternary"></rect><rect x="51.451" y="84.839" display="inline" width="43.549" height="8.71" fill="#ffffff" data-fill-palette-color="quaternary"></rect><path display="inline" d="M5 26.774V93.548H45.646V26.774zM36.936 50L25.323 52.902V73.224C25.323 76.429 22.074 79.031 18.065 79.031S10.807 76.429 10.807 73.224C10.807 70.021 14.056 67.417 18.065 67.417 19.704 67.417 21.204 67.871 22.419 68.605V44.193L36.936 41.29z" fill="#ffffff" data-fill-palette-color="quaternary"></path><circle display="inline" cx="12.258" cy="13.71" r="7.3" fill="#ffffff" data-fill-palette-color="quaternary"></circle></g></g><g fill="#ffffff" data-fill-palette-color="quaternary"><path d="M8.857 25.571V95H91.143V25.571zM85.997 89.857H13.997V30.714H85.997z" fill="#ffffff" data-fill-palette-color="quaternary"></path><rect x="16.571" y="15.286" width="66.857" height="5.143" fill="#ffffff" data-fill-palette-color="quaternary"></rect><rect x="24.286" y="5" width="51.428" height="5.143" fill="#ffffff" data-fill-palette-color="quaternary"></rect></g></svg></g></svg></g></svg></g></svg></g><g></g></svg></g><defs></defs></svg><rect width="344.92835651045834" height="247.2" fill="none" stroke="none" visibility="hidden"></rect></g></svg></g></svg>